<svg width="348" height="162" viewBox="0 0 348 162" fill="none" xmlns="http://www.w3.org/2000/svg">
<path d="M152.3 1.1C103.9 6.7 53.9 31.7 9.59995 72.2L0.699951 80.4L11.1 90.3C32.1 110.3 60.3 129.4 86.3 141.3C157.7 173.9 229.6 167.1 297.7 121.3C311.3 112.1 326.4 100.1 337.9 89.3L347.3 80.5L335.9 70.3C289.1 28.5 244.4 6.5 195.5 1C185 -0.0999963 162.7 -0.0999963 152.3 1.1ZM187.5 30.5C196.5 32.9 204.2 37.5 211.3 44.9C221.5 55.4 226 66.3 226 80.4C226 103.2 212.9 121.9 191.6 129.6C162.7 140.1 130.7 122.4 123.5 91.8C116.1 60.3 140.8 29.2 173.5 29C178 29 184.2 29.7 187.5 30.5Z" fill="#ADAFAE"/>
<path d="M146.697 25.0907C120.167 36.4542 106 55.7722 106 81.2264C106 115.544 135.879 141.226 175.289 140.999C211.607 140.771 239.941 117.59 242.774 85.7718C244.835 61.6812 232.729 40.9996 209.031 28.0452C191.516 18.4998 164.985 17.3635 146.697 25.0907Z" fill="#ADAFAE"/>
</svg>
